<svg width="55" height="55" viewBox="0 0 55 55" fill="none" xmlns="http://www.w3.org/2000/svg">
<g clip-path="url(#clip0_43_16)">
<path fill-rule="evenodd" clip-rule="evenodd" d="M27.5 4.58337C14.8431 4.58337 4.58331 14.8432 4.58331 27.5C4.58331 40.1569 14.8431 50.4167 27.5 50.4167C40.1569 50.4167 50.4166 40.1569 50.4166 27.5C50.4166 14.8432 40.1569 4.58337 27.5 4.58337ZM19.4791 21.7709C19.4791 20.7176 19.6866 19.6746 20.0897 18.7014C20.4928 17.7283 21.0836 16.8441 21.8284 16.0993C22.5732 15.3545 23.4574 14.7637 24.4305 14.3606C25.4037 13.9575 26.4467 13.75 27.5 13.75C28.5533 13.75 29.5963 13.9575 30.5694 14.3606C31.5425 14.7637 32.4268 15.3545 33.1716 16.0993C33.9164 16.8441 34.5072 17.7283 34.9103 18.7014C35.3133 19.6746 35.5208 20.7176 35.5208 21.7709C35.5208 23.8981 34.6758 25.9383 33.1716 27.4425C31.6674 28.9467 29.6272 29.7917 27.5 29.7917C25.3727 29.7917 23.3326 28.9467 21.8284 27.4425C20.3242 25.9383 19.4791 23.8981 19.4791 21.7709ZM41.8412 38.9217C40.1258 41.0796 37.9449 42.822 35.4616 44.0188C32.9783 45.2157 30.2567 45.8359 27.5 45.8334C24.7433 45.8359 22.0217 45.2157 19.5383 44.0188C17.055 42.822 14.8742 41.0796 13.1587 38.9217C16.8735 36.2565 21.9427 34.375 27.5 34.375C33.0573 34.375 38.1264 36.2565 41.8412 38.9217Z" fill="black"/>
</g>
<defs>
<clipPath id="clip0_43_16">
<rect width="55" height="55" fill="white"/>
</clipPath>
</defs>
</svg>
